<svg width="99" height="50" viewBox="0 0 99 50" fill="none" xmlns="http://www.w3.org/2000/svg">
<path d="M46.0773 36.0123C44.5307 36.0123 43.0296 35.8213 41.574 35.4392C40.1183 35.0571 38.9356 34.5476 38.0259 33.9108L39.7999 29.926C40.6551 30.4901 41.6467 30.9449 42.7748 31.2906C43.903 31.6364 45.0129 31.8092 46.1046 31.8092C48.1788 31.8092 49.216 31.2906 49.216 30.2535C49.216 29.7077 48.9158 29.3074 48.3153 29.0526C47.7331 28.7797 46.7869 28.4977 45.4768 28.2065C44.0394 27.8972 42.8385 27.5697 41.8742 27.224C40.9098 26.8601 40.0819 26.2869 39.3905 25.5045C38.6991 24.7221 38.3534 23.6668 38.3534 22.3386C38.3534 21.1741 38.6718 20.1278 39.3086 19.1999C39.9455 18.2537 40.8916 17.5077 42.1471 16.9619C43.4208 16.416 44.9765 16.1431 46.8142 16.1431C48.0697 16.1431 49.307 16.2886 50.526 16.5798C51.7451 16.8527 52.8186 17.2621 53.7466 17.8079L52.0817 21.82C50.2622 20.8375 48.4973 20.3462 46.7869 20.3462C45.7134 20.3462 44.931 20.5099 44.4397 20.8375C43.9484 21.1468 43.7028 21.5562 43.7028 22.0656C43.7028 22.5751 43.9939 22.9572 44.5762 23.2119C45.1584 23.4667 46.0955 23.7305 47.3874 24.0034C48.843 24.3128 50.0439 24.6494 50.99 25.0133C51.9544 25.359 52.7823 25.923 53.4737 26.7054C54.1833 27.4696 54.5381 28.5159 54.5381 29.8441C54.5381 30.9904 54.2197 32.0276 53.5828 32.9555C52.946 33.8835 51.9908 34.6295 50.7171 35.1935C49.4434 35.7394 47.8968 36.0123 46.0773 36.0123Z" fill="black"/>
<path d="M61.8652 20.5918C64.3216 20.5918 66.1957 21.1559 67.4875 22.284C68.7794 23.3939 69.4253 25.1042 69.4253 27.415V35.6302H64.5945V33.7197C63.8485 35.1571 62.3928 35.8759 60.2276 35.8759C59.0813 35.8759 58.0897 35.6757 57.2527 35.2754C56.4157 34.8751 55.7789 34.3384 55.3422 33.6651C54.9237 32.9737 54.7144 32.1913 54.7144 31.3179C54.7144 29.9169 55.2512 28.8343 56.3247 28.0701C57.3982 27.2877 59.054 26.8965 61.292 26.8965H64.2397C64.1487 25.3317 63.1025 24.5493 61.101 24.5493C60.3914 24.5493 59.6727 24.6676 58.9448 24.9041C58.217 25.1224 57.5984 25.4318 57.0889 25.8321L55.3422 22.3113C56.161 21.7654 57.1526 21.3469 58.3171 21.0558C59.4998 20.7465 60.6825 20.5918 61.8652 20.5918ZM61.6741 32.6007C62.2746 32.6007 62.8022 32.4551 63.2571 32.164C63.712 31.8729 64.0395 31.4453 64.2397 30.8812V29.5985H62.0016C60.4914 29.5985 59.7363 30.0989 59.7363 31.0996C59.7363 31.5545 59.9092 31.9184 60.2549 32.1913C60.6006 32.4642 61.0737 32.6007 61.6741 32.6007Z" fill="black"/>
<path d="M81.6779 35.0298C81.2412 35.3027 80.7045 35.5119 80.0677 35.6575C79.449 35.8031 78.7849 35.8759 78.0753 35.8759C76.1466 35.8759 74.6637 35.4028 73.6265 34.4566C72.5894 33.5105 72.0708 32.1003 72.0708 30.2262V25.2589H69.9147V21.3833H72.0708V17.535H77.2565V21.3833H80.6408V25.2589H77.2565V30.1716C77.2565 30.6993 77.3929 31.1178 77.6659 31.4271C77.957 31.7182 78.3391 31.8638 78.8122 31.8638C79.4126 31.8638 79.9403 31.7091 80.3952 31.3998L81.6779 35.0298Z" fill="black"/>
<path d="M89.4466 35.8759C87.8636 35.8759 86.4353 35.5483 85.1616 34.8933C83.8879 34.2383 82.8872 33.3285 82.1594 32.164C81.4498 30.9995 81.095 29.6804 81.095 28.2065C81.095 26.7509 81.4498 25.4409 82.1594 24.2764C82.8872 23.1119 83.8788 22.2112 85.1343 21.5744C86.408 20.9193 87.8454 20.5918 89.4466 20.5918C91.0478 20.5918 92.4852 20.9193 93.7589 21.5744C95.0326 22.2112 96.0242 23.1119 96.7338 24.2764C97.4434 25.4227 97.7982 26.7327 97.7982 28.2065C97.7982 29.6804 97.4434 30.9995 96.7338 32.164C96.0242 33.3285 95.0326 34.2383 93.7589 34.8933C92.4852 35.5483 91.0478 35.8759 89.4466 35.8759ZM89.4466 31.7546C90.3564 31.7546 91.1024 31.4453 91.6846 30.8267C92.2669 30.1898 92.558 29.3165 92.558 28.2065C92.558 27.1148 92.2669 26.2596 91.6846 25.641C91.1024 25.0224 90.3564 24.713 89.4466 24.713C88.5368 24.713 87.7908 25.0224 87.2086 25.641C86.6263 26.2596 86.3352 27.1148 86.3352 28.2065C86.3352 29.3165 86.6263 30.1898 87.2086 30.8267C87.7908 31.4453 88.5368 31.7546 89.4466 31.7546Z" fill="black"/>
<path fill-rule="evenodd" clip-rule="evenodd" d="M21.9551 34.22C18.7011 34.22 15.5805 32.9274 13.2796 30.6265C10.9787 28.3256 9.6861 25.205 9.6861 21.951C9.6861 18.6971 10.9787 15.5764 13.2796 13.2756C15.5805 10.9747 18.7011 9.68207 21.9551 9.68207V6.45337C20.3061 6.45337 18.6842 6.71617 17.1454 7.21856C14.8486 7.96845 12.7369 9.25215 10.9966 10.9925C8.09018 13.8989 6.4574 17.8408 6.4574 21.951C6.4574 26.0613 8.09018 30.0032 10.9966 32.9095C12.7369 34.6499 14.8486 35.9336 17.1454 36.6835C18.6842 37.1859 20.3061 37.4487 21.9551 37.4487V34.22ZM21.955 40.6701C19.4968 40.6701 17.0626 40.1859 14.7915 39.2452C12.5204 38.3044 10.4569 36.9256 8.71863 35.1874C6.9804 33.4492 5.60156 31.3856 4.66084 29.1145C3.72011 26.8434 3.23593 24.4092 3.23593 21.951H0C0 23.5728 0.179686 25.1857 0.53329 26.7606C0.808306 27.9855 1.18852 29.1875 1.67123 30.3528C2.77457 33.0165 4.39177 35.4368 6.43048 37.4755C8.46919 39.5142 10.8895 41.1314 13.5532 42.2348C14.7186 42.7175 15.9205 43.0977 17.1454 43.3727C18.7203 43.7263 20.3332 43.906 21.955 43.906L21.955 40.6701ZM29.4718 16.9285C30.4652 18.4152 30.9954 20.1631 30.9954 21.9511H21.9551L21.9551 30.9914C20.1671 30.9914 18.4192 30.4612 16.9326 29.4678C15.4459 28.4744 14.2872 27.0625 13.6029 25.4106C12.9187 23.7587 12.7397 21.941 13.0885 20.1874C13.4373 18.4337 14.2983 16.8229 15.5626 15.5586C16.8269 14.2943 18.4378 13.4333 20.1914 13.0845C21.9451 12.7357 23.7628 12.9147 25.4147 13.5989C27.0666 14.2832 28.4785 15.4419 29.4718 16.9285Z" fill="#003BD1"/>
</svg>
